HIERARCHY
ROOT Hips
{
	OFFSET -3.958830 18.904000 13.208200
	CHANNELS 6 Xposition Yposition Zposition Zrotation Yrotation Xrotation 
	JOINT LHipJoint
	{
		OFFSET 0.000000 0.000000 0.000000
		CHANNELS 3 Zrotation Yrotation Xrotation
		JOINT LeftUpLeg
		{
			OFFSET 1.800000 -1.400000 0.085000
			CHANNELS 3 Zrotation Yrotation Xrotation
			JOINT LeftLeg
			{
				OFFSET 2.215000 -6.000000 0.000000
				CHANNELS 3 Zrotation Yrotation Xrotation
				JOINT LeftFoot
				{
					OFFSET 2.500000 -6.900000 0.000000
					CHANNELS 3 Zrotation Yrotation Xrotation
					JOINT LeftToeBase
					{
						OFFSET 0.200000 -0.500000 1.950000
						CHANNELS 3 Zrotation Yrotation Xrotation
						End Site
						{
							OFFSET 0.000000 0.000000 0.000000
						}
					}
				}
			}
		}
	}
	JOINT RHipJoint
	{
		OFFSET 0.000000 0.000000 0.000000
		CHANNELS 3 Zrotation Yrotation Xrotation
		JOINT RightUpLeg
		{
			OFFSET -1.800000 -1.400000 0.085000
			CHANNELS 3 Zrotation Yrotation Xrotation
			JOINT RightLeg
			{
				OFFSET -2.215000 -6.000000 0.000000
				CHANNELS 3 Zrotation Yrotation Xrotation
				JOINT RightFoot
				{
					OFFSET -2.500000 -6.900000 0.000000
					CHANNELS 3 Zrotation Yrotation Xrotation
					JOINT RightToeBase
					{
						OFFSET -0.200000 -0.500000 1.950000
						CHANNELS 3 Zrotation Yrotation Xrotation
						End Site
						{
							OFFSET 0.000000 0.000000 0.000000
						}
					}
				}
			}
		}
	}
	JOINT LowerBack
	{
		OFFSET 0.000000 0.000000 0.000000
		CHANNELS 3 Zrotation Yrotation Xrotation
		JOINT Spine
		{
			OFFSET -0.087000 1.940000 -0.288900
			CHANNELS 3 Zrotation Yrotation Xrotation
			JOINT Spine1
			{
				OFFSET 0.000000 1.950000 0.060000
				CHANNELS 3 Zrotation Yrotation Xrotation
				JOINT Neck
				{
					OFFSET 0.000000 0.000000 0.000000
					CHANNELS 3 Zrotation Yrotation Xrotation
					JOINT Neck1
					{
						OFFSET 0.000000 1.600000 0.340000
						CHANNELS 3 Zrotation Yrotation Xrotation
						JOINT Head
						{
							OFFSET 0.000000 1.667000 -0.240000
							CHANNELS 3 Zrotation Yrotation Xrotation
							End Site
							{
								OFFSET 0.000000 0.000000 0.000000
							}
						}
					}
				}
				JOINT LeftShoulder
				{
					OFFSET 0.000000 0.000000 0.000000
					CHANNELS 3 Zrotation Yrotation Xrotation
					JOINT LeftArm
					{
						OFFSET 2.700000 1.550000 -0.730000
						CHANNELS 3 Zrotation Yrotation Xrotation
						JOINT LeftForeArm
						{
							OFFSET 5.450000 0.000000 0.000000
							CHANNELS 3 Zrotation Yrotation Xrotation
							JOINT LeftHand
							{
								OFFSET 3.450000 0.000000 0.000000
								CHANNELS 3 Zrotation Yrotation Xrotation
								JOINT LeftHandIndex1
								{
									OFFSET 0.750000 0.000000 0.000000
									CHANNELS 3 Zrotation Yrotation Xrotation
									End Site
									{
										OFFSET 0.000000 0.000000 0.000000
									}
								}
							}
						}
					}
				}
				JOINT RightShoulder
				{
					OFFSET 0.000000 0.000000 0.000000
					CHANNELS 3 Zrotation Yrotation Xrotation
					JOINT RightArm
					{
						OFFSET -2.700000 1.550000 -0.730000
						CHANNELS 3 Zrotation Yrotation Xrotation
						JOINT RightForeArm
						{
							OFFSET -5.450000 0.000000 0.000000
							CHANNELS 3 Zrotation Yrotation Xrotation
							JOINT RightHand
							{
								OFFSET -3.450000 0.000000 0.000000
								CHANNELS 3 Zrotation Yrotation Xrotation
								JOINT RightHandIndex1
								{
									OFFSET -0.750000 0.000000 0.000000
									CHANNELS 3 Zrotation Yrotation Xrotation
									End Site
									{
										OFFSET 0.000000 0.000000 0.000000
									}
								}
							}
						}
					}
				}
			}
		}
	}
}
MOTION
Frames: 6
Frame Time: 0.016667
-1.272170 17.225660 -1.675380 0.392818 22.386407 0.860330 -15.357341 13.891578 3.130217 -1.895530 -0.538657 0.353933 -1.716462 7.978953 32.894738 -0.018081 6.582884 2.449378 0.700090 0.092120 0.793920 17.931707 -10.822220 3.332964 1.554795 4.964357 -22.856327 5.115262 -6.173632 28.645224 -0.470755 -3.665884 3.320068 -0.004660 -0.174770 0.120340 -3.432245 -2.126293 -8.205772 8.399348 -1.194800 24.512397 -0.844307 0.434980 -7.953331 2.715135 5.798004 -6.268035 7.559824 -8.127462 46.239481 -2.526220 -1.770570 -15.595960 -15.649417 10.041740 -1.308862 -22.499106 20.341735 -8.331622 73.769858 -58.656619 -36.472983 -3.269556 2.114012 1.000720 -0.147200 0.135080 0.146670 10.892502 -12.634164 3.273294 48.636173 -18.258406 -18.965286 28.285933 56.485161 10.057474 1.705328 -1.682567 -0.228780 0.139560 -0.244790 -0.557170 
-1.295450 17.216490 -1.712010 0.246274 22.846490 0.296408 -15.407811 13.918281 3.093961 -1.723503 -0.465791 0.524414 -1.692841 7.916853 32.328845 -0.031968 6.513807 2.475053 0.726260 0.128620 0.808910 17.899449 -10.668226 3.416148 1.068236 5.694611 -24.314914 5.860947 -6.781316 31.492628 -0.545768 -4.084982 3.165803 0.017890 -0.179500 0.127430 -3.303817 -2.349623 -8.216189 7.905679 -1.098301 25.963574 0.141011 0.585027 -7.606243 2.618433 6.282292 -6.322060 8.438899 -8.571590 44.520401 -2.795340 -1.626130 -16.342750 -16.126773 8.757889 -1.193481 -19.611045 21.117333 -8.026914 71.963018 -59.318564 -35.793190 -3.263404 2.152337 0.987620 -0.139190 0.136750 0.154770 11.659738 -11.483893 3.305221 46.432967 -18.214051 -18.708175 26.811233 58.211664 9.763985 1.683702 -1.731809 -0.218490 0.132720 -0.262220 -0.556260 
-1.340280 17.213910 -1.761940 0.465553 23.665050 -0.734375 -15.551812 14.073235 3.077090 -1.453331 -0.243362 1.340615 -1.650923 7.889134 31.430064 -0.017440 6.450788 2.489184 0.757160 0.182470 0.827170 17.779674 -10.341003 3.520550 -0.486597 6.633655 -26.117257 7.640772 -7.964311 35.308130 -0.683692 -4.767963 2.905862 0.042000 -0.206950 0.139940 -2.898156 -3.060258 -8.251736 5.744328 -0.517318 28.712042 2.910061 1.017370 -7.677503 2.389805 6.632851 -6.536272 8.876046 -8.988350 43.536161 -3.035870 -1.477720 -17.770550 -16.644730 7.041268 -0.984932 -15.603402 22.361393 -7.465646 66.963334 -60.851677 -33.576357 -3.221299 2.242707 0.978400 -0.149930 0.163190 0.157780 12.959566 -9.319259 3.446147 41.575148 -18.081815 -17.714526 23.063393 60.159498 8.613605 1.675189 -1.777716 -0.192130 0.116720 -0.283950 -0.549110 
-1.384070 17.203290 -1.802090 0.609429 24.916271 -1.472388 -15.701437 14.220889 3.010261 -0.547519 0.074942 2.562919 -1.889835 7.905683 29.726720 -0.038242 6.388567 2.511281 0.808930 0.246470 0.868910 17.670628 -9.955536 3.639179 -2.545473 7.481535 -27.912230 10.294592 -9.472466 38.114363 -0.826823 -5.488175 2.633793 0.087300 -0.219090 0.168660 -2.483036 -3.833921 -8.250409 3.790158 0.174523 30.196122 5.803227 1.401072 -6.514352 2.275719 7.163936 -6.411362 9.580861 -9.733348 41.300992 -4.255860 -1.468770 -18.915930 -17.795703 4.851838 -0.921380 -9.118851 24.484423 -6.226657 61.159632 -63.338728 -31.709175 -3.249095 2.385397 0.954900 -0.134460 0.174370 0.161230 14.689681 -6.918466 3.502123 35.961313 -17.891615 -16.706694 16.987574 61.107713 5.971263 1.635339 -1.830206 -0.167680 0.107080 -0.303080 -0.549980 
-1.412900 17.192100 -1.830930 0.388095 26.603758 -1.979320 -15.795400 14.355234 2.941145 1.137616 0.351686 4.059414 -2.507525 7.956845 27.176900 -0.058863 6.292332 2.551666 0.815880 0.256880 0.872800 17.601736 -9.622793 3.785036 -4.522319 8.045489 -29.648898 12.943475 -10.974614 39.876206 -0.936197 -6.087445 2.416507 0.101110 -0.221950 0.172970 -2.225103 -4.492029 -8.302694 3.302245 0.104961 31.481248 7.654120 1.383811 -6.298328 2.115245 7.056623 -6.359959 9.101235 -10.077368 39.985761 -4.446020 -2.005430 -19.440540 -18.275295 3.652475 -0.863674 -4.103507 25.475004 -4.588405 51.242139 -64.686215 -26.917354 -3.314988 2.669685 0.936910 -0.130510 0.165660 0.150890 15.650404 -5.323709 3.652161 31.852175 -18.346094 -16.071126 10.311223 61.504652 3.011374 1.610379 -1.845841 -0.159800 0.103640 -0.296610 -0.549220 
-1.420880 17.177840 -1.846180 -0.680609 28.825848 -1.737528 -15.803100 14.444030 2.853835 3.719110 0.216804 4.563333 -3.342112 7.950603 24.439253 -0.105182 6.177754 2.614529 0.765790 0.184320 0.831990 17.590391 -9.418268 3.961927 -5.721445 8.276341 -31.592577 15.048021 -12.068804 39.993624 -0.963329 -6.380957 2.315240 0.067810 -0.187560 0.178970 -2.222513 -4.854557 -8.407387 5.044102 -1.449284 31.794523 8.165688 0.609586 -7.592775 2.032035 6.278790 -6.460950 7.695404 -9.627660 38.811116 -5.209620 -2.170070 -18.299030 -17.664612 4.088532 -0.640611 -2.159688 26.739746 -3.183155 43.798454 -65.292458 -23.063035 -3.380936 2.878442 0.923130 -0.106320 0.123310 0.140230 15.108455 -5.302117 3.558394 29.578278 -18.220019 -15.223644 5.427821 61.408222 1.177153 1.607386 -1.848086 -0.178130 0.092450 -0.260210 -0.548760 
